<?xml version="1.0" standalone="no"?>
<!DOCTYPE svg PUBLIC "-//W3C//DTD SVG 20010904//EN"
 "http://www.w3.org/TR/2001/REC-SVG-20010904/DTD/svg10.dtd">
<svg version="1.0" xmlns="http://www.w3.org/2000/svg"
 width="972.000000pt" height="972.000000pt" viewBox="0 0 972.000000 972.000000"
 preserveAspectRatio="xMidYMid meet">
<metadata>
Created by potrace 1.14, written by Peter Selinger 2001-2017
</metadata>
<g transform="translate(0.000000,972.000000) scale(0.100000,-0.100000)"
fill="#000000" stroke="none">
<path d="M4827 9514 c-1 -1 -56 -4 -122 -8 -66 -3 -131 -8 -145 -10 -14 -2
-52 -7 -85 -10 -33 -3 -71 -8 -84 -11 -14 -2 -61 -9 -105 -16 -44 -6 -83 -12
-86 -14 -3 -2 -22 -6 -42 -9 -207 -33 -645 -163 -843 -251 -16 -7 -59 -25 -95
-40 -75 -31 -282 -134 -385 -190 -299 -165 -648 -413 -885 -630 -107 -98 -357
-351 -431 -436 -199 -231 -445 -576 -559 -785 -12 -21 -31 -55 -42 -74 -65
-110 -236 -479 -287 -620 -7 -19 -17 -44 -22 -55 -39 -90 -164 -528 -184 -644
-3 -19 -7 -37 -9 -40 -2 -3 -7 -31 -11 -61 -4 -30 -8 -57 -10 -60 -2 -3 -6
-30 -10 -60 -3 -30 -8 -62 -10 -70 -6 -23 -24 -174 -32 -280 -16 -190 -9 -654
12 -800 2 -14 6 -52 10 -85 4 -32 9 -68 11 -80 2 -11 9 -47 14 -80 62 -394
199 -816 390 -1210 43 -88 95 -189 115 -225 21 -36 49 -85 63 -110 14 -25 53
-88 86 -140 592 -928 1476 -1619 2505 -1960 256 -85 520 -145 806 -184 160
-22 186 -25 335 -33 659 -36 1248 51 1865 275 181 66 529 226 655 302 514 309
792 528 1149 905 46 49 117 129 158 179 42 50 85 102 97 116 85 99 317 441
403 594 135 243 284 575 366 816 86 253 171 617 192 826 3 32 8 70 10 84 28
189 28 763 1 962 -30 212 -41 281 -62 388 -156 783 -514 1522 -1049 2165 -111
134 -383 413 -507 520 -44 39 -86 75 -93 82 -58 57 -538 403 -558 403 -2 0
-45 25 -95 55 -395 238 -959 452 -1402 531 -14 2 -47 9 -75 14 -27 5 -72 12
-100 15 -27 4 -57 8 -65 10 -14 4 -46 8 -152 20 -129 14 -590 29 -601 19z
m523 -137 c14 -3 57 -8 95 -12 39 -3 81 -8 95 -10 65 -8 116 -16 130 -20 8 -2
35 -7 60 -10 161 -23 623 -147 655 -177 5 -5 10 -64 11 -131 2 -141 14 -594
19 -682 2 -33 6 -141 10 -240 4 -99 9 -202 10 -230 2 -27 6 -126 9 -220 4 -93
9 -215 12 -270 3 -55 7 -302 8 -550 2 -247 7 -468 11 -490 22 -127 119 -231
253 -271 106 -33 215 -34 668 -8 l92 5 6 -37 c40 -208 252 -382 473 -386 278
-6 501 203 517 482 4 72 -20 175 -59 250 -147 279 -507 356 -753 161 -103 -82
-173 -208 -189 -339 -4 -38 -10 -50 -22 -50 -9 1 -79 -3 -156 -8 -77 -4 -223
-8 -325 -8 -225 0 -272 13 -356 99 -73 74 -75 87 -79 656 -2 261 -5 519 -8
574 -3 55 -9 170 -12 255 -3 85 -8 187 -10 225 -2 39 -6 151 -10 250 -4 99 -9
212 -11 250 -1 39 -6 208 -10 377 l-6 306 38 -13 c219 -75 611 -279 874 -453
85 -56 337 -243 375 -278 11 -11 52 -46 90 -79 152 -129 335 -312 465 -464 30
-35 60 -69 65 -75 40 -44 176 -221 252 -330 305 -435 548 -948 688 -1455 38
-138 83 -341 101 -451 3 -19 7 -46 10 -60 10 -62 32 -256 41 -365 13 -166 6
-592 -12 -705 -2 -14 -7 -53 -10 -88 -4 -35 -8 -73 -11 -85 -2 -12 -7 -42 -10
-67 -3 -25 -17 -99 -30 -165 -132 -649 -409 -1258 -824 -1809 -54 -72 -107
-140 -117 -151 -10 -11 -31 -36 -47 -55 -77 -94 -276 -300 -432 -446 -31 -30
-160 -139 -249 -210 -112 -91 -499 -354 -521 -354 -2 0 -22 -11 -44 -25 -143
-90 -661 -327 -678 -310 -8 8 -6 848 3 1285 8 383 11 1305 6 1771 -3 216 2
251 51 323 59 91 156 137 314 152 99 9 664 12 669 4 2 -4 7 -22 10 -41 17 -99
59 -181 135 -263 189 -201 498 -208 704 -16 267 250 182 684 -162 829 -275
116 -606 -62 -672 -362 l-13 -57 -111 0 c-179 0 -579 -10 -610 -14 -159 -24
-262 -81 -333 -184 -64 -94 -67 -111 -64 -422 5 -600 4 -1182 -4 -1510 -9
-415 -14 -1442 -8 -1487 3 -18 9 -30 14 -27 5 3 9 1 9 -3 0 -18 -448 -145
-594 -168 -49 -8 -90 -16 -107 -21 -14 -4 -16 39 -17 398 -2 222 -4 482 -7
578 -2 96 -7 310 -10 475 -3 165 -8 354 -10 420 -2 66 -6 215 -10 330 -3 116
-8 280 -10 365 -3 85 -7 236 -10 335 -3 99 -7 270 -10 380 -18 631 -26 1175
-29 2020 -2 407 -6 751 -9 765 -3 14 -8 48 -11 76 -7 53 -40 145 -77 211 -87
155 -200 252 -350 301 -137 45 -225 51 -659 45 -212 -3 -447 -6 -522 -6 l-138
-1 0 -65 0 -64 348 7 c617 13 696 12 826 -9 126 -21 255 -88 315 -164 36 -45
105 -172 120 -221 29 -95 31 -194 36 -1250 2 -498 6 -988 9 -1090 3 -102 8
-284 11 -405 11 -436 21 -796 30 -1065 6 -191 15 -498 20 -740 3 -107 7 -298
10 -425 3 -126 7 -453 10 -726 l5 -496 -47 -7 c-27 -3 -73 -8 -103 -11 -30 -4
-68 -9 -85 -11 -40 -7 -620 -13 -665 -7 l-35 5 -1 766 c0 422 -3 909 -7 1082
-21 1004 -26 1803 -16 2770 4 389 0 489 -24 559 -40 113 -149 254 -244 314
-50 31 -146 72 -194 81 -32 6 -53 10 -109 21 -99 20 -1161 25 -2355 11 -1163
-14 -1085 -14 -1085 2 0 38 78 267 167 492 58 146 257 554 283 580 3 3 16 25
29 50 38 70 200 314 283 425 210 283 540 631 788 833 36 29 74 60 84 69 10 8
69 52 130 98 611 453 1340 750 2061 840 28 4 61 8 74 10 13 2 67 7 120 11 53
4 98 8 100 10 6 5 583 -3 611 -9z m2737 -2877 c193 -61 312 -271 258 -456 -33
-116 -105 -198 -221 -251 -49 -22 -73 -27 -144 -27 -77 -1 -92 2 -150 31 -142
71 -220 189 -222 337 -1 66 9 110 39 169 27 53 96 134 128 149 11 5 33 16 50
25 71 39 182 48 262 23z m-4075 -663 c93 -15 200 -47 259 -78 110 -59 210
-199 229 -320 6 -40 8 -243 4 -534 -10 -819 -6 -1535 11 -2380 19 -942 24
-2130 8 -2145 -7 -8 -64 -2 -258 24 -153 21 -631 139 -653 161 -3 3 -7 222 -8
488 -2 448 -7 749 -19 1157 -3 91 -8 271 -11 400 -4 129 -7 595 -8 1035 -1
891 3 831 -73 948 -71 108 -164 168 -308 200 -110 25 -193 29 -595 29 l-377 0
-7 52 c-22 193 -163 365 -347 425 -59 19 -81 22 -149 22 -274 0 -499 -217
-503 -486 -2 -151 44 -266 149 -369 154 -153 373 -189 572 -94 120 58 222 177
258 301 l18 66 436 -3 c239 -2 449 -6 465 -10 17 -4 50 -12 75 -17 65 -15 127
-44 176 -84 51 -42 108 -134 119 -190 4 -22 9 -452 11 -955 1 -503 5 -969 8
-1035 20 -457 39 -1760 26 -1828 l-5 -26 -170 68 c-473 189 -899 444 -1275
765 -110 94 -95 80 -236 217 -602 584 -1039 1328 -1244 2117 -17 64 -33 133
-36 152 -3 19 -8 38 -9 41 -2 3 -13 61 -25 130 -11 68 -23 134 -25 147 -2 13
-7 53 -11 90 -3 37 -8 74 -9 82 -23 121 -22 656 0 815 2 17 7 54 10 83 11 110
45 308 76 440 l21 92 171 0 c256 1 1071 11 1074 13 6 7 2144 0 2185 -6z
m-2170 -666 c32 -13 79 -42 108 -68 174 -156 176 -411 5 -561 -216 -190 -550
-81 -615 200 -42 182 70 373 255 436 75 25 168 23 247 -7z m6352 -629 c137
-65 226 -205 220 -347 -4 -105 -31 -171 -100 -245 -150 -161 -384 -166 -538
-12 -175 174 -137 461 78 587 75 44 122 55 205 50 54 -3 91 -13 135 -33z"/>
<path d="M3220 7523 c-30 -8 -65 -17 -77 -20 -13 -3 -23 -9 -23 -14 0 -5 -6
-9 -14 -9 -29 0 -135 -91 -179 -152 -144 -202 -123 -472 51 -646 104 -103 236
-154 381 -147 271 13 490 256 474 525 -10 162 -102 316 -240 403 -104 65 -258
90 -373 60z m235 -134 c182 -68 289 -267 241 -447 -29 -108 -108 -201 -214
-250 -49 -23 -70 -27 -152 -27 -81 1 -103 4 -152 27 -238 111 -296 424 -111
605 108 106 257 141 388 92z"/>
</g>
</svg>
